# xmcd
#
# Track frame offsets: 
#        150
#        13710
#        26702
#        40161
#        53067
#        65834
#        76524
#        88924
#        102933
#        115789
#        127721
#        141180
#        154513
#        170972
#        183703
#        196408
#        213509
#        225313
#        239758
#        251252
#
# Disc length: 3521 seconds
#
# Revision: 1
# Processed by: cddbd v1.5.2PL0 Copyright (c) Steve Scherf et al.
# Submitted via: ExactAudioCopy v0.99pb4
#
DISCID=0f0dbf14
DTITLE=Merle Haggard - 20 Legendary Hits
DYEAR=1900
DGENRE=Country
TTITLE0=Cherokee Maiden
TTITLE1=Kentucky Gambler
TTITLE2=The Way I Am
TTITLE3=Misery and Gin
TTITLE4=Im Always on a Mountain When I Fall
TTITLE5=Someday Well Look Back
TTITLE6=I Take a Lot of Pride in What I Am
TTITLE7=I Threw Away the Rose
TTITLE8=Swinging Doors
TTITLE9=From Graceland to the Promised Land
TTITLE10=Holding Things Together
TTITLE11=The Farmers Daughter
TTITLE12=Ramblin Fever
TTITLE13=Its Been a Great Afternoon
TTITLE14=Silver Wings
TTITLE15=Today I Started Loving You Again
TTITLE16=Turnin Off a Memory
TTITLE17=Im a Lonesome Fugitive
TTITLE18=My Friends Are Gonna Be Strangers
TTITLE19=The Emptiest Arms in the World
EXTD=
EXTT0=
EXTT1=
EXTT2=
EXTT3=
EXTT4=
EXTT5=
EXTT6=
EXTT7=
EXTT8=
EXTT9=
EXTT10=
EXTT11=
EXTT12=
EXTT13=
EXTT14=
EXTT15=
EXTT16=
EXTT17=
EXTT18=
EXTT19=
PLAYORDER=
